<svg width="24" height="24" viewBox="0 0 24 24" fill="none" xmlns="http://www.w3.org/2000/svg">
<g clip-path="url(#clip0_2353_274)">
<path d="M12 14V16C10.4087 16 8.88258 16.6321 7.75736 17.7574C6.63214 18.8826 6 20.4087 6 22H4C4 19.8783 4.84285 17.8434 6.34315 16.3431C7.84344 14.8429 9.87827 14 12 14ZM12 13C8.685 13 6 10.315 6 7C6 3.685 8.685 1 12 1C15.315 1 18 3.685 18 7C18 10.315 15.315 13 12 13ZM12 11C14.21 11 16 9.21 16 7C16 4.79 14.21 3 12 3C9.79 3 8 4.79 8 7C8 9.21 9.79 11 12 11Z" fill="current"/>
<path d="M-15.68 -42.7067C-18.9404 -28.8893 -20.6644 -14.4773 -20.6644 0.334679C-20.6644 56.512 4.14764 106.887 43.4143 141.108C19.7263 155.425 -8.03903 163.665 -37.7364 163.665H-143.591C-230.34 163.665 -300.658 93.3427 -300.658 6.59867C-300.658 -2.55759 -295.861 -10.964 -287.449 -14.5787C-262.111 -25.4589 -199.345 -46.328 -90.6628 -46.328C-62.6681 -46.328 -37.7201 -44.9425 -15.6788 -42.7029L-15.68 -42.7067Z" fill="#B8C4DB"/>
<path fill-rule="evenodd" clip-rule="evenodd" d="M23 18.5C23 20.9852 20.9852 23 18.5 23C16.0148 23 14 20.9852 14 18.5C14 16.0148 16.0148 14 18.5 14C20.9852 14 23 16.0148 23 18.5ZM19.891 19.0625H21.4474C21.2186 20.2682 20.2682 21.2186 19.0625 21.4474V19.891C19.4385 19.7388 19.7388 19.4385 19.891 19.0625ZM19.891 17.9375H21.4474C21.1841 16.5495 19.9646 15.5 18.5 15.5C17.0354 15.5 15.8159 16.5495 15.5526 17.9375H17.109C17.3316 17.3877 17.8706 17 18.5 17C19.1294 17 19.6684 17.3877 19.891 17.9375ZM17.109 19.0625H15.5526C15.7814 20.2682 16.7318 21.2186 17.9375 21.4474V19.891C17.5615 19.7388 17.2612 19.4385 17.109 19.0625Z" fill="current"/>
</g>
<defs>
<clipPath id="clip0_2353_274">
<rect width="24" height="24" fill="current"/>
</clipPath>
</defs>
</svg>
